<?xml version="1.0" encoding="utf-8"?>
<!-- Generator: Adobe Illustrator 28.0.0, SVG Export Plug-In . SVG Version: 6.00 Build 0)  -->
<svg version="1.1" id="Layer_1" xmlns="http://www.w3.org/2000/svg" xmlns:xlink="http://www.w3.org/1999/xlink" x="0px" y="0px"
	 viewBox="0 0 661.28 157.89" style="enable-background:new 0 0 661.28 157.89;" xml:space="preserve">
<style type="text/css">
	.st0{fill:#FFFFFF;}
	.st1{fill:#88BBD0;}
	.st2{fill:#C6E5F5;}
</style>
<g>
	<g>
		<g>
			<path class="st0" d="M208.11,39.81v76.88h-14.15V39.81H208.11z M236.36,71.39v11.77h-31.94V71.39H236.36z M246.97,39.81v76.88
				h-14.05V39.81H246.97z"/>
			<path class="st0" d="M265.46,74.5l6.94,30.84l1.56,11.23l-6.82,1.17L254.69,74.5H265.46z M268.58,111.94l8.93-37.43h10.45
				l-13.88,48.55c-0.34,1.04-0.77,2.18-1.31,3.41c-0.53,1.23-1.24,2.4-2.12,3.51c-0.88,1.1-1.99,2.01-3.31,2.71
				c-1.33,0.7-2.91,1.05-4.76,1.05c-0.83,0-1.56-0.06-2.18-0.18c-0.62-0.12-1.33-0.29-2.11-0.53l0.04-7.92
				c0.21,0.03,0.43,0.04,0.66,0.06c0.23,0.01,0.47,0.02,0.7,0.02c1.22,0,2.23-0.18,3.02-0.53c0.79-0.35,1.44-0.9,1.93-1.66
				c0.49-0.75,0.92-1.72,1.29-2.89L268.58,111.94z"/>
			<path class="st0" d="M291.74,97.24v-3.08c0-3.46,0.3-6.47,0.9-9.03c0.6-2.56,1.5-4.69,2.71-6.38c1.21-1.69,2.66-2.95,4.37-3.78
				c1.7-0.83,3.65-1.25,5.83-1.25c2.05,0,3.84,0.48,5.36,1.44c1.52,0.96,2.82,2.33,3.9,4.11c1.08,1.78,1.94,3.89,2.57,6.32
				c0.64,2.43,1.08,5.1,1.35,8.01v4.33c-0.31,2.83-0.78,5.43-1.4,7.8c-0.62,2.37-1.48,4.43-2.57,6.2c-1.09,1.77-2.4,3.13-3.92,4.09
				c-1.52,0.96-3.31,1.44-5.36,1.44c-2.16,0-4.09-0.44-5.79-1.31c-1.7-0.87-3.15-2.16-4.35-3.86c-1.2-1.7-2.09-3.81-2.69-6.34
				C292.04,103.45,291.74,100.54,291.74,97.24z M301.76,94.16v3.08c0,2.03,0.12,3.78,0.35,5.26c0.23,1.48,0.61,2.7,1.13,3.67
				c0.52,0.96,1.2,1.67,2.03,2.12c0.83,0.46,1.86,0.68,3.08,0.68c1.56,0,2.83-0.39,3.8-1.17s1.72-1.85,2.24-3.22
				c0.52-1.36,0.86-2.92,1.01-4.66V91.7c-0.08-1.4-0.29-2.68-0.62-3.84s-0.79-2.16-1.36-3s-1.27-1.51-2.11-1.99
				c-0.83-0.48-1.81-0.72-2.92-0.72c-1.22,0-2.26,0.23-3.1,0.7s-1.52,1.2-2.03,2.18c-0.51,0.99-0.88,2.24-1.13,3.74
				C301.88,90.28,301.76,92.08,301.76,94.16z M314.04,107.65V56.8h10.02v59.89l-9.08,0.04L314.04,107.65z"/>
			<path class="st0" d="M342.78,83.28v33.42h-9.98V74.5h9.48L342.78,83.28z M352.84,74.19l-0.08,9.94c-0.55-0.1-1.14-0.18-1.77-0.23
				c-0.64-0.05-1.22-0.08-1.74-0.08c-1.22,0-2.28,0.21-3.18,0.62c-0.9,0.42-1.64,1.01-2.22,1.79c-0.58,0.78-1.03,1.73-1.35,2.87
				s-0.51,2.41-0.58,3.84l-2.03-0.35c0-2.7,0.21-5.2,0.64-7.49c0.43-2.29,1.07-4.28,1.91-5.99c0.84-1.7,1.89-3.03,3.14-3.98
				c1.25-0.95,2.68-1.42,4.29-1.42c0.47,0,1,0.05,1.6,0.14C352.07,73.95,352.53,74.06,352.84,74.19z"/>
			<path class="st0" d="M357.44,97.16v-3.08c0-3.33,0.4-6.25,1.19-8.77c0.79-2.52,1.94-4.64,3.43-6.36c1.49-1.72,3.27-3.02,5.32-3.9
				c2.05-0.88,4.34-1.33,6.86-1.33c2.57,0,4.89,0.44,6.96,1.33c2.07,0.88,3.84,2.18,5.32,3.9c1.48,1.72,2.62,3.83,3.43,6.36
				c0.81,2.52,1.21,5.45,1.21,8.77v3.08c0,3.3-0.4,6.22-1.21,8.75c-0.8,2.53-1.95,4.66-3.43,6.38c-1.48,1.72-3.26,3.01-5.32,3.88
				c-2.07,0.87-4.36,1.31-6.88,1.31s-4.82-0.44-6.9-1.31c-2.08-0.87-3.87-2.16-5.36-3.88c-1.5-1.72-2.64-3.84-3.43-6.38
				C357.83,103.38,357.44,100.46,357.44,97.16z M367.42,94.08v3.08c0,2.05,0.16,3.83,0.49,5.32c0.32,1.5,0.79,2.74,1.38,3.74
				c0.6,1,1.32,1.73,2.16,2.2c0.84,0.47,1.8,0.7,2.87,0.7c1.12,0,2.11-0.23,2.98-0.7c0.87-0.47,1.59-1.2,2.16-2.2
				c0.57-1,1-2.25,1.29-3.74c0.29-1.49,0.43-3.27,0.43-5.32v-3.08c0-2.03-0.16-3.79-0.49-5.28c-0.33-1.49-0.79-2.74-1.38-3.72
				c-0.6-0.99-1.33-1.74-2.18-2.24s-1.82-0.76-2.88-0.76c-1.04,0-1.98,0.25-2.81,0.76c-0.83,0.51-1.55,1.25-2.14,2.24
				c-0.6,0.99-1.06,2.23-1.38,3.72C367.58,90.29,367.42,92.05,367.42,94.08z"/>
		</g>
	</g>
	<g>
		<g>
			<path class="st0" d="M405.17,39.82h23.92c5.1,0,9.44,0.88,13.02,2.64c3.57,1.76,6.31,4.37,8.21,7.81
				c1.9,3.45,2.85,7.71,2.85,12.78c0,4.01-0.57,7.48-1.72,10.4c-1.14,2.92-2.77,5.37-4.88,7.34c-2.11,1.97-4.65,3.52-7.6,4.65
				l-4.22,2.43h-19.8l-0.05-11.83h13.89c2.29,0,4.2-0.51,5.73-1.53c1.53-1.02,2.67-2.44,3.43-4.25c0.76-1.81,1.13-3.92,1.13-6.31
				c0-2.53-0.34-4.73-1.03-6.57s-1.76-3.26-3.22-4.25c-1.46-0.99-3.37-1.48-5.73-1.48h-9.77v65.05h-14.15V39.82z M440.49,116.7
				l-14.36-34.43h14.84l14.68,33.69v0.74H440.49z"/>
			<path class="st0" d="M478.57,117.48c-2.81,0-5.3-0.43-7.47-1.29c-2.17-0.86-4.01-2.11-5.52-3.74s-2.66-3.65-3.45-6.04
				c-0.79-2.39-1.19-5.13-1.19-8.23v-3.78c0-3.48,0.4-6.52,1.21-9.1c0.81-2.59,1.93-4.74,3.37-6.45c1.44-1.72,3.18-3,5.22-3.84
				c2.04-0.84,4.29-1.27,6.76-1.27c2.65,0,4.97,0.44,6.96,1.31c1.99,0.87,3.63,2.16,4.93,3.88c1.3,1.72,2.27,3.84,2.91,6.38
				c0.64,2.53,0.96,5.47,0.96,8.79v4.8h-27.84v-7.29h18.01v-0.98c-0.05-1.82-0.27-3.37-0.64-4.64c-0.38-1.27-1-2.24-1.85-2.91
				c-0.86-0.66-2.01-0.99-3.47-0.99c-1.14,0-2.12,0.23-2.94,0.68c-0.82,0.46-1.49,1.16-2.01,2.13c-0.52,0.96-0.9,2.22-1.15,3.78
				c-0.25,1.56-0.37,3.47-0.37,5.73v3.78c0,2,0.18,3.7,0.53,5.09c0.35,1.39,0.88,2.52,1.58,3.39c0.7,0.87,1.56,1.5,2.57,1.89
				c1.01,0.39,2.2,0.58,3.55,0.58c2.03,0,3.81-0.36,5.34-1.09c1.53-0.73,2.86-1.73,3.98-3l4.17,6.12c-0.75,1.01-1.78,2.01-3.08,2.98
				c-1.3,0.98-2.86,1.77-4.68,2.4C483.14,117.16,481.01,117.48,478.57,117.48z"/>
			<path class="st0" d="M509.92,83.51v33.18h-10.02V74.51h9.36L509.92,83.51z M508.28,94.12l-2.92,0.04
				c-0.03-3.09,0.29-5.89,0.96-8.4c0.66-2.51,1.62-4.66,2.87-6.45c1.25-1.79,2.74-3.17,4.46-4.13c1.73-0.96,3.67-1.44,5.83-1.44
				c1.69,0,3.22,0.29,4.58,0.86c1.36,0.57,2.54,1.48,3.53,2.73c0.99,1.25,1.75,2.89,2.3,4.91c0.55,2.03,0.82,4.52,0.82,7.49v26.98
				h-10.02V89.6c0-1.9-0.2-3.39-0.6-4.46c-0.4-1.08-0.99-1.85-1.75-2.3c-0.77-0.45-1.75-0.68-2.94-0.68c-1.12,0-2.12,0.31-3,0.94
				c-0.88,0.62-1.63,1.48-2.24,2.57c-0.61,1.09-1.08,2.36-1.4,3.8C508.4,90.9,508.25,92.46,508.28,94.12z"/>
			<path class="st0" d="M555.77,117.48c-2.81,0-5.3-0.43-7.47-1.29c-2.17-0.86-4.01-2.11-5.52-3.74s-2.66-3.65-3.45-6.04
				c-0.79-2.39-1.19-5.13-1.19-8.23v-3.78c0-3.48,0.4-6.52,1.21-9.1c0.81-2.59,1.93-4.74,3.37-6.45c1.44-1.72,3.18-3,5.22-3.84
				c2.04-0.84,4.29-1.27,6.76-1.27c2.65,0,4.97,0.44,6.96,1.31c1.99,0.87,3.63,2.16,4.93,3.88c1.3,1.72,2.27,3.84,2.91,6.38
				c0.64,2.53,0.96,5.47,0.96,8.79v4.8h-27.84v-7.29h18.01v-0.98c-0.05-1.82-0.27-3.37-0.64-4.64c-0.38-1.27-1-2.24-1.85-2.91
				c-0.86-0.66-2.01-0.99-3.47-0.99c-1.14,0-2.12,0.23-2.94,0.68c-0.82,0.46-1.49,1.16-2.01,2.13c-0.52,0.96-0.9,2.22-1.15,3.78
				c-0.25,1.56-0.37,3.47-0.37,5.73v3.78c0,2,0.18,3.7,0.53,5.09c0.35,1.39,0.88,2.52,1.58,3.39c0.7,0.87,1.56,1.5,2.57,1.89
				c1.01,0.39,2.2,0.58,3.55,0.58c2.03,0,3.81-0.36,5.34-1.09c1.53-0.73,2.86-1.73,3.98-3l4.17,6.12c-0.75,1.01-1.78,2.01-3.08,2.98
				c-1.3,0.98-2.86,1.77-4.68,2.4C560.34,117.16,558.21,117.48,555.77,117.48z"/>
			<path class="st0" d="M584.12,74.51l5.65,31.93l0.04,10.25h-6.2l-9.16-42.19H584.12z M586.92,106.4l7.8-31.9H601l-1.36,11.35
				l-7.76,30.84h-5.42L586.92,106.4z M602.01,74.51l7.72,31.58l0.55,10.61h-5.38l-7.84-30.8l-1.36-11.39H602.01z M607.12,105.97
				l5.5-31.47h9.63l-9.08,42.19h-6.24L607.12,105.97z"/>
		</g>
	</g>
</g>
<g>
	<path class="st1" d="M174.55,67c-4.06-9.89-7.27-26.36-7.1-28.33c0-0.06,0.01-0.11,0.01-0.16c0-0.07,0-0.14,0-0.21c0,0,0,0,0-0.01
		c-0.02-0.14-0.04-0.28-0.03-0.42c-0.19-1.52-1.13-3.21,0.29-12.87c0,0-27.74,13.37-39.15,24.5
		c-11.41,11.13-21.49,20.45-25.02,37.21c-3.54,16.76,2.87,33.61,15.87,42.05c12.99,8.43,37.68,5.27,45.29-2.43
		c7.58-7.67,13.35-12.57,15.28-33.3c-0.01-0.12-0.01-0.23,0-0.35C179.84,90.98,178.37,76.31,174.55,67z"/>
	<path class="st2" d="M111.55,97.02L111.55,97.02c3.28-3.23,7.15,4.53,10.38,7.81l8.15,7.04c3.23,3.28,11.27,8.83,8,12.07l0,0
		c-3.28,3.23-8.47,5.29-11.7,2.01l-9.26-7.78l-7.04-8.89C106.34,105.31,108.23,100.2,111.55,97.02z"/>
</g>
</svg>
